<svg height="512" viewBox="0 0 54 60" width="512" xmlns="http://www.w3.org/2000/svg"><g id="Page-1" fill="none" fill-rule="evenodd"><g id="003---Beanie" fill="rgb(0,0,0)" fill-rule="nonzero"><path id="Shape" d="m27 60c12.224 0 24.587-2.329 24.981-6.782 1.6442203-4.6445011 1.4564787-9.7410585-.525-14.252-.3252973-.7415549-.8284944-1.3914177-1.465-1.892-.3008165-8.6804382-5.0442418-16.5962203-12.557-20.955 1.0815278-1.2402771 1.6425231-2.8501831 1.566-4.494 0-6.084-5.72-11.625-12-11.625s-12 5.541-12 11.625c-.0759326 1.6405637.4827103 3.2473783 1.56 4.487-7.51641344 4.3632734-12.26096042 12.2850803-12.56 20.971-.63174217.4991835-1.13134886 1.1457536-1.455 1.883-1.98147872 4.5109415-2.16922028 9.6074989-.525 14.252.393 4.453 12.756 6.782 24.98 6.782zm0-2c-14.04 0-23-2.961-23-5s8.96-5 23-5 23 2.961 23 5-8.96 5-23 5zm0-56c5.3376314.09914947 9.6970114 4.29505275 10 9.625 0 3.818-2.9 5.375-10 5.375-3.849 0-6.453-.462-8.041-1.488l-.016-.01c-1.3067141-.8408622-2.0514615-2.3269074-1.943-3.877.3029886-5.32994725 4.6623686-9.52585053 10-9.625zm-8.721 15.443c2.365 1.298 5.664 1.557 8.721 1.557s6.346-.258 8.711-1.552c6.9550973 3.69889 11.5546472 10.6778811 12.211 18.528-4.462-1.851-12.236-2.976-20.922-2.976s-16.47 1.126-20.931 2.98c.65572733-7.8523335 5.2545509-14.8341838 12.21-18.537zm-13.904 22.331c.25702737-.5922136.70431446-1.0817308 1.271-1.391 3.764-2.055 12.146-3.383 21.354-3.383s17.59 1.328 21.353 3.382c.567225.3093492 1.0149015.7992593 1.272 1.392 1.4879522 3.401911 1.8587245 7.18806 1.059 10.814-3.534-3.021-13.657-4.588-23.684-4.588s-20.15 1.567-23.684 4.588c-.7997245-3.62594-.4289522-7.412089 1.059-10.814z"/><path id="Shape" d="m14 27c.5522847 0 1-.4477153 1-1v-1c0-.5522847-.4477153-1-1-1s-1 .4477153-1 1v1c0 .5522847.4477153 1 1 1z"/><path id="Shape" d="m14 29c-.5522847 0-1 .4477153-1 1v1c0 .5522847.4477153 1 1 1s1-.4477153 1-1v-1c0-.5522847-.4477153-1-1-1z"/><path id="Shape" d="m11 29h1c.5522847 0 1-.4477153 1-1s-.4477153-1-1-1h-1c-.5522847 0-1 .4477153-1 1s.4477153 1 1 1z"/><path id="Shape" d="m16 29h1c.5522847 0 1-.4477153 1-1s-.4477153-1-1-1h-1c-.5522847 0-1 .4477153-1 1s.4477153 1 1 1z"/><path id="Shape" d="m19 24c0 .5522847.4477153 1 1 1s1-.4477153 1-1v-1c0-.5522847-.4477153-1-1-1s-1 .4477153-1 1z"/><path id="Shape" d="m20 29c-.5522847 0-1 .4477153-1 1v1c0 .5522847.4477153 1 1 1s1-.4477153 1-1v-1c0-.5522847-.4477153-1-1-1z"/><path id="Shape" d="m17 22h1c.5522847 0 1-.4477153 1-1s-.4477153-1-1-1h-1c-.5522847 0-1 .4477153-1 1s.4477153 1 1 1z"/><path id="Shape" d="m22 22h1c.5522847 0 1-.4477153 1-1s-.4477153-1-1-1h-1c-.5522847 0-1 .4477153-1 1s.4477153 1 1 1z"/><path id="Shape" d="m40 27c.5522847 0 1-.4477153 1-1v-1c0-.5522847-.4477153-1-1-1s-1 .4477153-1 1v1c0 .5522847.4477153 1 1 1z"/><path id="Shape" d="m40 29c-.5522847 0-1 .4477153-1 1v1c0 .5522847.4477153 1 1 1s1-.4477153 1-1v-1c0-.5522847-.4477153-1-1-1z"/><path id="Shape" d="m42 29h1c.5522847 0 1-.4477153 1-1s-.4477153-1-1-1h-1c-.5522847 0-1 .4477153-1 1s.4477153 1 1 1z"/><path id="Shape" d="m37 27c-.5522847 0-1 .4477153-1 1s.4477153 1 1 1h1c.5522847 0 1-.4477153 1-1s-.4477153-1-1-1z"/><path id="Shape" d="m33 24c0 .5522847.4477153 1 1 1s1-.4477153 1-1v-1c0-.5522847-.4477153-1-1-1s-1 .4477153-1 1z"/><path id="Shape" d="m34 29c-.5522847 0-1 .4477153-1 1v1c0 .5522847.4477153 1 1 1s1-.4477153 1-1v-1c0-.5522847-.4477153-1-1-1z"/><path id="Shape" d="m36 22h1c.5522847 0 1-.4477153 1-1s-.4477153-1-1-1h-1c-.5522847 0-1 .4477153-1 1s.4477153 1 1 1z"/><path id="Shape" d="m31 22h1c.5522847 0 1-.4477153 1-1s-.4477153-1-1-1h-1c-.5522847 0-1 .4477153-1 1s.4477153 1 1 1z"/><path id="Shape" d="m27 26c.5522847 0 1-.4477153 1-1v-1c0-.5522847-.4477153-1-1-1s-1 .4477153-1 1v1c0 .5522847.4477153 1 1 1z"/><path id="Shape" d="m27 28c-.5522847 0-1 .4477153-1 1v1c0 .5522847.4477153 1 1 1s1-.4477153 1-1v-1c0-.5522847-.4477153-1-1-1z"/><path id="Shape" d="m23 27c0 .5522847.4477153 1 1 1h1c.5522847 0 1-.4477153 1-1s-.4477153-1-1-1h-1c-.5522847 0-1 .4477153-1 1z"/><path id="Shape" d="m29 28h1c.5522847 0 1-.4477153 1-1s-.4477153-1-1-1h-1c-.5522847 0-1 .4477153-1 1s.4477153 1 1 1z"/><path id="Shape" d="m7 47c.55228475 0 1-.4477153 1-1-.02432719-1.9123993.28845318-3.8141311.924-5.618.20609633-.5087332-.03639474-1.0885012-.54331791-1.2990102s-1.08877637.0269353-1.30368209.5320102c-.74345534 2.0453517-1.10840332 4.2089478-1.077 6.385 0 .5522847.44771525 1 1 1z"/><path id="Shape" d="m13 45c.5522847 0 1-.4477153 1-1-.0179441-1.5645321.288498-3.1158098.9-4.556.2460429-.494571.044571-1.0949571-.45-1.341s-1.0949571-.044571-1.341.45c-.7542367 1.7156912-1.1323791 3.5729876-1.109 5.447 0 .2652165.1053568.5195704.2928932.7071068s.4418903.2928932.7071068.2928932z"/><path id="Shape" d="m20 44c.5522847 0 1-.4477153 1-1-.0179441-1.5645321.288498-3.1158098.9-4.556.2460428-.494571.0445709-1.0949571-.45-1.3409999-.494571-.2460429-1.0949571-.0445711-1.341.4499999-.7542367 1.7156912-1.1323791 3.5729876-1.109 5.447 0 .5522847.4477153 1 1 1z"/><path id="Shape" d="m46 46c0 .5522847.4477153 1 1 1s1-.4477153 1-1c.0314033-2.1760522-.3335447-4.3396483-1.077-6.385-.2149057-.5050749-.7967589-.7425192-1.3036821-.5320102s-.7494142.790277-.5433179 1.2990102c.6355468 1.8038689.9483272 3.7056007.924 5.618z"/><path id="Shape" d="m40 44c0 .5522847.4477153 1 1 1s1-.4477153 1-1c.0262139-1.8733578-.3488542-3.7306269-1.1-5.447-.2468713-.4942949-.8477051-.6948713-1.342-.448s-.6948713.8477051-.448 1.342c.613669 1.4381544.9169428 2.9896216.89 4.553z"/><path id="Shape" d="m33 43c0 .5522847.4477153 1 1 1s1-.4477153 1-1c.0262139-1.8733578-.3488542-3.7306269-1.1-5.447-.1596977-.3197527-.4778505-.5300187-.8346134-.5515928-.3567628-.0215741-.6979349.1488214-.895.447-.1970651.2981787-.2200843.6788401-.0603866.9985928.613669 1.4381544.9169428 2.9896216.89 4.553z"/><path id="Shape" d="m27 44c.5522847 0 1-.4477153 1-1v-5c0-.5522847-.4477153-1-1-1s-1 .4477153-1 1v5c0 .5522847.4477153 1 1 1z"/></g></g></svg>